<?xml version="1.0" encoding="iso-8859-1"?>
<!-- Generator: Adobe Illustrator 19.0.0, SVG Export Plug-In . SVG Version: 6.00 Build 0)  -->
<svg version="1.1" id="Layer_1" xmlns="http://www.w3.org/2000/svg" xmlns:xlink="http://www.w3.org/1999/xlink" x="0px" y="0px"
	 viewBox="0 0 512.003 512.003" style="enable-background:new 0 0 512.003 512.003;" xml:space="preserve">
<g>
	<path style="fill:#E5B877;" d="M219.936,256.087c-11.673,0-23.134,8.255-23.134,18.438c0,10.183,11.462,18.437,23.134,18.437
		V256.087z"/>
	<path style="fill:#E5B877;" d="M362.438,256.087c11.673,0,23.134,8.255,23.134,18.438c0,10.183-11.462,18.437-23.134,18.437
		V256.087z"/>
</g>
<path style="fill:#444C51;" d="M291.188,7.634c-51.239,0-92.772,41.532-92.772,92.772c0,9.606,0,88.191,0,99.567v7.332h185.542
	v-7.332c0-10.526,0-88.518,0-99.567C383.959,49.166,342.429,7.634,291.188,7.634z"/>
<path style="fill:#384047;" d="M255.742,100.407c0-41.236,26.901-76.178,64.11-88.253c-59.925-19.452-121.436,25.307-121.436,88.253
	c0,9.606,0,88.191,0,99.567v7.332h57.326v-7.332C255.742,189.448,255.742,111.456,255.742,100.407z"/>
<path style="fill:#F9D6A2;" d="M268.857,351.831v24.656c0,12.332,9.999,22.33,22.329,22.33c12.334,0,22.334-9.998,22.334-22.33
	v-24.656C299.01,356.471,283.368,356.471,268.857,351.831z"/>
<path style="fill:#E5B877;" d="M291.188,376.487v-21.177c-7.602,0-15.108-1.169-22.331-3.479v24.656
	c0,17.237,18.699,27.896,33.497,19.336C295.682,391.961,291.188,384.751,291.188,376.487z"/>
<path style="fill:#ED4343;" d="M430.376,490.169l-15.751-82.881c0,0-6.931-30.801-42.354-30.801c-19.488,0-42.227,0-58.751,0
	c0,12.332-10,22.33-22.334,22.33c-12.33,0-22.329-9.998-22.329-22.33c-16.524,0-39.264,0-58.754,0
	c-35.421,0-42.352,30.801-42.352,30.801l-15.285,80.435v0.001l-0.427,2.245c-0.547,4.577,0.082,14.571,16.016,14.571
	c36.673,0,213.183,0,251.776,0C425.17,503.961,432.472,501.211,430.376,490.169z"/>
<path style="fill:#C93F3F;" d="M179.04,489.969l0.427-2.245v-0.001l15.285-80.435c0,0,6.931-30.801,42.352-30.801
	c-9.089,0-18.364,0-27,0c-35.421,0-42.352,30.801-42.352,30.801l-15.285,80.435v0.001l-0.427,2.245
	c-0.547,4.577,0.082,14.571,16.016,14.571h27C179.122,504.54,178.494,494.547,179.04,489.969z"/>
<path style="fill:#F9D6A2;" d="M217.937,247.631v34.429c0,40.458,32.793,73.251,73.252,73.251c40.457,0,73.25-32.793,73.25-73.251
	v-34.429H217.937z"/>
<path style="fill:#F4CF92;" d="M244.601,282.06v-34.429h-26.665v34.429c0,45.421,41.125,80.372,86.583,72.018
	C270.432,347.807,244.601,317.961,244.601,282.06z"/>
<path style="fill:#C93F3F;" d="M302.353,395.805c-6.833,3.957-15.296,4.076-22.331,0V504.54c13.228,0,13.834,0,22.331,0V395.805z"/>
<path style="fill:#384047;" d="M388.59,215.254c0-8.438-6.84-15.279-15.278-15.279H209.063c-8.438,0-15.278,6.841-15.278,15.279
	v19.1c0,8.438,6.84,15.278,15.278,15.278h164.249c8.438,0,15.278-6.84,15.278-15.278V215.254z"/>
<path style="fill:#272F35;" d="M373.312,224.803H209.063c-7.458,0-13.659-5.347-15-12.414c-0.176,0.93-0.278,1.885-0.278,2.865v19.1
	c0,8.438,6.84,15.278,15.278,15.278h164.249c8.438,0,15.278-6.84,15.278-15.278v-19.099c0-0.98-0.102-1.936-0.278-2.865
	C386.97,219.457,380.77,224.803,373.312,224.803z"/>
<path style="fill:#384249;" d="M100.726,292.962h-2.162c-9.542,0-17.305,7.762-17.305,17.303v191.276c0,1.657,1.343,3,3,3h30.768
	c1.657,0,3-1.343,3-3V310.265C118.026,300.724,110.265,292.962,100.726,292.962z"/>
<path style="fill:#262D33;" d="M99.643,501.541V310.265c0-6.61,3.73-12.361,9.193-15.273c-4.238-2.26-7.693-2.029-10.272-2.029
	c-9.542,0-17.305,7.762-17.305,17.303v191.276c0,1.657,1.343,3,3,3h18.384C100.985,504.54,99.643,503.198,99.643,501.541z"/>
<path style="fill:#4C565E;" d="M81.259,501.541c0,1.657,1.343,3,3,3h30.768c1.657,0,3-1.343,3-3v-83.529H81.259V501.541z"/>
<path style="fill:#384047;" d="M99.643,501.541v-83.529H81.259v83.529c0,1.657,1.343,3,3,3h18.384
	C100.985,504.54,99.643,503.198,99.643,501.541z"/>
<path d="M439.293,503.103l-5.891-30.994c-0.773-4.068-4.702-6.742-8.767-5.967c-4.068,0.774-6.74,4.698-5.967,8.768l4.199,22.095
	h-48.743v-45.86c0-4.141-3.357-7.499-7.499-7.499c-4.142,0-7.499,3.358-7.499,7.499v45.86H308.67v-97.309
	c5.044-4.059,8.639-9.649,10.213-15.746h52.206c28.223,0,34.574,23.095,35.02,24.871l7.914,41.648
	c0.773,4.068,4.698,6.741,8.768,5.967c4.068-0.773,6.74-4.698,5.967-8.767c-0.033-0.174-7.958-41.891-7.997-42.063
	c-2.854-12.678-16.905-36.653-49.671-36.653h-51.251v-11.917c24.397-9.738,42.958-31.032,48.888-57.093
	c23.349-4.109,31.327-30.908,13.222-45.079c7.658-3.674,12.959-11.504,12.959-20.549c0-19.302,1.207-25.302-4.761-33.013
	c0.193-1.048,0.13,5.759,0.13-100.933c0-22.674-7.781-44.894-21.909-62.568c-2.586-3.235-7.306-3.761-10.54-1.176
	c-3.235,2.587-3.762,7.305-1.176,10.54c12.186,15.244,18.627,33.642,18.627,53.204v92.068h-3.148c-3.963,0-162.929,0-167.397,0
	v-92.068c0-69.582,79.178-109.611,135.148-69.177c3.357,2.424,8.044,1.671,10.471-1.688c2.425-3.357,1.67-8.045-1.689-10.471
	c-65.984-47.665-158.928-0.335-158.928,81.336c0,106.578-0.063,99.884,0.13,100.933c-5.846,7.553-4.761,12.908-4.761,33.013
	c0,9.046,5.301,16.876,12.959,20.549c-18.111,14.176-10.122,40.971,13.222,45.079c5.931,26.061,24.493,47.356,48.891,57.093v11.913
	h-51.254c-32.764,0-46.815,23.976-49.669,36.653c-0.039,0.171-18.499,97.326-18.532,97.499c-0.877,4.616,2.666,8.899,7.367,8.899
	c11.911,0,270.9,0,283.836,0c2.234,0,4.352-0.996,5.776-2.718C439.127,507.564,439.709,505.297,439.293,503.103z M370.755,283.619
	c0-8.132,0-13.119,0-18.265C378.938,269.695,378.926,279.288,370.755,283.619z M372.13,207.436c4.289,0,7.779,3.49,7.779,7.78v19.1
	c0,4.289-3.49,7.779-7.779,7.779h-8.874c-8.138,0-151.01,0-155.375,0c-4.289,0-7.779-3.49-7.779-7.779v-19.1
	c0-4.29,3.49-7.78,7.779-7.78H372.13z M209.257,283.619c-8.181-4.337-8.172-13.93,0-18.265
	C209.257,270.506,209.257,275.483,209.257,283.619z M224.255,282.023v-24.93h131.503v24.93c0,44.648-43.607,75.895-85.47,62.726
	C243.636,336.352,224.255,311.41,224.255,282.023z M304.84,361.403v15.047c0,8.17-6.757,14.831-14.835,14.831
	c-8.068,0-14.83-6.588-14.83-14.831v-15.047C284.694,363.177,294.973,363.243,304.84,361.403z M286.34,497.003v-52.596
	c0-4.142-3.357-7.499-7.499-7.499c-4.142,0-7.499,3.357-7.499,7.499v52.596h-50.458v-45.86c0-4.141-3.357-7.499-7.499-7.499
	c-4.142,0-7.499,3.358-7.499,7.499v45.86h-48.738l16.757-88.18c0.183-0.712,1.766-6.477,6.415-12.288
	c6.681-8.352,16.305-12.586,28.602-12.586h52.208c1.53,5.927,5.037,11.582,10.211,15.745v18.723c0,4.142,3.357,7.499,7.499,7.499
	c4.142,0,7.499-3.357,7.499-7.499v-12.365c2.302,0.286,4.825,0.31,7.333-0.001v90.954L286.34,497.003L286.34,497.003z"/>
<path d="M362.756,347.773c-4.142,0-7.499,3.357-7.499,7.499c0,4.142,3.357,7.499,7.499,7.499h27.294
	c4.142,0,7.499-3.357,7.499-7.499c0-4.142-3.357-7.499-7.499-7.499H362.756z"/>
<path d="M218.154,362.771c4.142,0,7.499-3.357,7.499-7.499c0-4.142-3.357-7.499-7.499-7.499h-27.293
	c-4.142,0-7.499,3.357-7.499,7.499c0,4.142,3.357,7.499,7.499,7.499H218.154z"/>
<path d="M105.96,286.272V153.961c0-4.142-3.357-7.499-7.499-7.499s-7.499,3.357-7.499,7.499v132.313
	c-10.574,2.837-18.384,12.498-18.384,23.954v107.746v86.529c0,4.142,3.357,7.499,7.499,7.499h36.767
	c4.142,0,7.499-3.357,7.499-7.499c0-9.685,0-184.304,0-194.275C124.345,298.771,116.535,289.108,105.96,286.272z M97.382,300.424
	h2.162c5.405,0,9.803,4.397,9.803,9.804v100.247h-21.77V310.228C87.576,304.822,91.976,300.424,97.382,300.424z M109.346,497.003
	h-21.77v-71.531h21.769L109.346,497.003L109.346,497.003z"/>
<g>
</g>
<g>
</g>
<g>
</g>
<g>
</g>
<g>
</g>
<g>
</g>
<g>
</g>
<g>
</g>
<g>
</g>
<g>
</g>
<g>
</g>
<g>
</g>
<g>
</g>
<g>
</g>
<g>
</g>
</svg>
